<?xml version="1.0" encoding="utf-8"?>
<!-- Generator: Adobe Illustrator 16.0.0, SVG Export Plug-In . SVG Version: 6.00 Build 0)  -->
<!DOCTYPE svg PUBLIC "-//W3C//DTD SVG 1.1//EN" "http://www.w3.org/Graphics/SVG/1.1/DTD/svg11.dtd">
<svg version="1.1" id="Filled_Version" xmlns="http://www.w3.org/2000/svg" xmlns:xlink="http://www.w3.org/1999/xlink" x="0px"
	 y="0px" width="24px" height="24px" viewBox="0 0 24 24" enable-background="new 0 0 24 24" xml:space="preserve">
<g>
	<path d="M22.5,4H22v1v14.5c0,0.276-0.224,0.5-0.5,0.5h-5h-2c-1.164,0-1.5,0.336-1.5,1.5c0,0.276-0.224,0.5-0.5,0.5h-2
		c-0.276,0-0.5-0.224-0.5-0.5c0-1.164-0.337-1.5-1.5-1.5h-2h-5C1.224,20,1,19.776,1,19.5V5V4H0.5C0.224,4,0,4.225,0,4.5v16
		C0,20.776,0.224,21,0.5,21h6c0.901,0,3,0.244,3,2.5c0,0.276,0.224,0.5,0.5,0.5h3c0.276,0,0.5-0.224,0.5-0.5
		c0-2.256,2.098-2.5,3-2.5h6c0.276,0,0.5-0.224,0.5-0.5v-16C23,4.225,22.776,4,22.5,4z"/>
	<path d="M14.5,19h6H21v-0.5v-16C21,2.225,20.776,2,20.5,2h-6c-0.904,0-1.822,0.201-2.5,0.812V21h0.025
		C12.174,19.639,12.971,19,14.5,19z"/>
	<path d="M8.5,19c1.529,0,2.326,0.639,2.475,2H11V2.812C10.322,2.203,9.408,2,8.5,2h-6C2.224,2,2,2.225,2,2.5v16V19h0.5H8.5z"/>
</g>
</svg>